<svg id="hvac-replacement" width="700" height="500" viewBox="0 0 700 500" fill="none" xmlns="http://www.w3.org/2000/svg" data-fg-d3bl1="0.8:1.43962:/src/app/App.tsx:20:7:679:10748:e:svg:etxtetxtetxtetxtetxtetxte" data-fgid-d3bl1=":r1:"><defs data-fg-d3bl2="0.8:1.43962:/src/app/App.tsx:28:9:869:1279:e:defs:xtetxtetxtetxtetxte"><linearGradient id="acGradient" x1="0%" y1="0%" x2="0%" y2="100%" data-fg-d3bl4="0.8:1.43962:/src/app/App.tsx:30:11:940:202:e:linearGradient:ete"><stop offset="0%" stop-color="#ffffff" data-fg-d3bl5="0.8:1.43962:/src/app/App.tsx:31:13:1019:40:e:stop"/><stop offset="100%" stop-color="#f0f0f0" data-fg-d3bl6="0.8:1.43962:/src/app/App.tsx:32:13:1072:42:e:stop"/></linearGradient><linearGradient id="navyGradient" x1="0%" y1="0%" x2="0%" y2="100%" data-fg-d3bl8="0.8:1.43962:/src/app/App.tsx:36:11:1209:204:e:linearGradient:ete"><stop offset="0%" stop-color="#1a2540" data-fg-d3bl9="0.8:1.43962:/src/app/App.tsx:37:13:1290:40:e:stop"/><stop offset="100%" stop-color="#121a2e" data-fg-d3bl10="0.8:1.43962:/src/app/App.tsx:38:13:1343:42:e:stop"/></linearGradient><linearGradient id="redGradient" x1="0%" y1="0%" x2="0%" y2="100%" data-fg-d3bl12="0.8:1.43962:/src/app/App.tsx:42:11:1466:203:e:linearGradient:ete"><stop offset="0%" stop-color="#d91f2d" data-fg-d3bl13="0.8:1.43962:/src/app/App.tsx:43:13:1546:40:e:stop"/><stop offset="100%" stop-color="#b81825" data-fg-d3bl14="0.8:1.43962:/src/app/App.tsx:44:13:1599:42:e:stop"/></linearGradient><filter id="glow" data-fg-d3bl16="0.8:1.43962:/src/app/App.tsx:48:11:1721:245:e:filter:ete"><feGaussianBlur stdDeviation="4" result="coloredBlur" data-fg-d3bl17="0.8:1.43962:/src/app/App.tsx:49:13:1752:55:e:feGaussianBlur"/><feMerge data-fg-d3bl18="0.8:1.43962:/src/app/App.tsx:50:13:1820:126:e:feMerge:ete"><feMergeNode in="coloredBlur" data-fg-d3bl19="0.8:1.43962:/src/app/App.tsx:51:15:1844:31:e:feMergeNode"/><feMergeNode in="SourceGraphic" data-fg-d3bl20="0.8:1.43962:/src/app/App.tsx:52:15:1890:33:e:feMergeNode"/></feMerge></filter><filter id="shadow" data-fg-d3bl22="0.8:1.43962:/src/app/App.tsx:57:11:2013:119:e:filter:e"><feDropShadow dx="0" dy="4" stdDeviation="6" flood-opacity="0.15" data-fg-d3bl23="0.8:1.43962:/src/app/App.tsx:58:13:2046:66:e:feDropShadow"/></filter></defs><g filter="url(#shadow)" data-fg-d3bl25="0.8:1.43962:/src/app/App.tsx:63:9:2203:2542:e:g:xtetxtetxtetetxtetetetxtxtxtetetetxtetetxtx"><rect x="200" y="60" width="300" height="100" rx="12" fill="url(#navyGradient)" data-fg-d3bl27="0.8:1.43962:/src/app/App.tsx:65:11:2273:81:e:rect"/><rect x="210" y="68" width="280" height="84" rx="10" fill="url(#acGradient)" data-fg-d3bl29="0.8:1.43962:/src/app/App.tsx:68:11:2421:78:e:rect"/><rect x="230" y="85" width="80" height="40" rx="6" fill="#121a2e" data-fg-d3bl31="0.8:1.43962:/src/app/App.tsx:71:11:2561:67:e:rect"/><rect x="235" y="90" width="70" height="30" rx="4" fill="#000000" opacity="0.8" data-fg-d3bl32="0.8:1.43962:/src/app/App.tsx:72:11:2639:81:e:rect"/><text x="270" y="110" fill="#d91f2d" font-size="18" font-weight="bold" text-anchor="middle" font-family="Arial, sans-serif" data-fg-d3bl34="0.8:1.43962:/src/app/App.tsx:75:11:2772:130:e:text:t">72°</text><circle cx="245" cy="100" r="2.5" fill="#d91f2d" filter="url(#glow)" data-fg-d3bl36="0.8:1.43962:/src/app/App.tsx:76:11:2913:70:e:circle"/><circle cx="295" cy="100" r="2.5" fill="#1a2540" opacity="0.6" data-fg-d3bl37="0.8:1.43962:/src/app/App.tsx:77:11:2994:64:e:circle"/><g data-fg-d3bl40="0.8:1.43962:/src/app/App.tsx:81:13:3175:526:e:g:ete"><rect x="330" y="80" width="140" height="5" rx="2.5" fill="#1a2540" opacity="0.15" data-fg-d3bl41="0.8:1.43962:/src/app/App.tsx:82:15:3217:226:e:rect"/><rect x="330" y="80" width="140" height="3" rx="1.5" fill="#1a2540" opacity="0.25" data-fg-d3bl42="0.8:1.43962:/src/app/App.tsx:91:15:3458:226:e:rect"/></g><g data-fg-d3bl40="0.8:1.43962:/src/app/App.tsx:81:13:3175:526:e:g:ete"><rect x="330" y="91" width="140" height="5" rx="2.5" fill="#1a2540" opacity="0.15" data-fg-d3bl41="0.8:1.43962:/src/app/App.tsx:82:15:3217:226:e:rect"/><rect x="330" y="91" width="140" height="3" rx="1.5" fill="#1a2540" opacity="0.25" data-fg-d3bl42="0.8:1.43962:/src/app/App.tsx:91:15:3458:226:e:rect"/></g><g data-fg-d3bl40="0.8:1.43962:/src/app/App.tsx:81:13:3175:526:e:g:ete"><rect x="330" y="102" width="140" height="5" rx="2.5" fill="#1a2540" opacity="0.15" data-fg-d3bl41="0.8:1.43962:/src/app/App.tsx:82:15:3217:226:e:rect"/><rect x="330" y="102" width="140" height="3" rx="1.5" fill="#1a2540" opacity="0.25" data-fg-d3bl42="0.8:1.43962:/src/app/App.tsx:91:15:3458:226:e:rect"/></g><g data-fg-d3bl40="0.8:1.43962:/src/app/App.tsx:81:13:3175:526:e:g:ete"><rect x="330" y="113" width="140" height="5" rx="2.5" fill="#1a2540" opacity="0.15" data-fg-d3bl41="0.8:1.43962:/src/app/App.tsx:82:15:3217:226:e:rect"/><rect x="330" y="113" width="140" height="3" rx="1.5" fill="#1a2540" opacity="0.25" data-fg-d3bl42="0.8:1.43962:/src/app/App.tsx:91:15:3458:226:e:rect"/></g><g data-fg-d3bl40="0.8:1.43962:/src/app/App.tsx:81:13:3175:526:e:g:ete"><rect x="330" y="124" width="140" height="5" rx="2.5" fill="#1a2540" opacity="0.15" data-fg-d3bl41="0.8:1.43962:/src/app/App.tsx:82:15:3217:226:e:rect"/><rect x="330" y="124" width="140" height="3" rx="1.5" fill="#1a2540" opacity="0.25" data-fg-d3bl42="0.8:1.43962:/src/app/App.tsx:91:15:3458:226:e:rect"/></g><g data-fg-d3bl40="0.8:1.43962:/src/app/App.tsx:81:13:3175:526:e:g:ete"><rect x="330" y="135" width="140" height="5" rx="2.5" fill="#1a2540" opacity="0.15" data-fg-d3bl41="0.8:1.43962:/src/app/App.tsx:82:15:3217:226:e:rect"/><rect x="330" y="135" width="140" height="3" rx="1.5" fill="#1a2540" opacity="0.25" data-fg-d3bl42="0.8:1.43962:/src/app/App.tsx:91:15:3458:226:e:rect"/></g><ellipse cx="450" cy="80" rx="30" ry="12" fill="white" opacity="0.5" data-fg-d3bl44="0.8:1.43962:/src/app/App.tsx:104:11:3780:70:e:ellipse"/><ellipse cx="460" cy="75" rx="15" ry="8" fill="white" opacity="0.7" data-fg-d3bl45="0.8:1.43962:/src/app/App.tsx:105:11:3861:69:e:ellipse"/><circle cx="470" cy="72" r="5" fill="white" opacity="0.9" data-fg-d3bl46="0.8:1.43962:/src/app/App.tsx:106:11:3941:59:e:circle"/><circle cx="225" cy="140" r="8" fill="#d91f2d" opacity="0.3" data-fg-d3bl48="0.8:1.43962:/src/app/App.tsx:109:11:4056:62:e:circle"/><circle cx="225" cy="140" r="5" fill="#d91f2d" data-fg-d3bl49="0.8:1.43962:/src/app/App.tsx:110:11:4129:48:e:circle"/><g opacity="0.4" data-fg-d3bl52="0.8:1.43962:/src/app/App.tsx:114:13:4312:406:e:g:ete"><path d="M 290 165 Q 295 195 290 225 T 290 260" stroke="#d91f2d" stroke-width="2.5" fill="none" stroke-linecap="round" data-fg-d3bl53="0.8:1.43962:/src/app/App.tsx:115:15:4365:264:e:path"/><circle cx="290" cy="165" r="3" fill="#d91f2d" data-fg-d3bl54="0.8:1.43962:/src/app/App.tsx:122:15:4644:57:e:circle"/></g><g opacity="0.4" data-fg-d3bl52="0.8:1.43962:/src/app/App.tsx:114:13:4312:406:e:g:ete"><path d="M 320 165 Q 325 195 320 225 T 320 260" stroke="#d91f2d" stroke-width="2.5" fill="none" stroke-linecap="round" data-fg-d3bl53="0.8:1.43962:/src/app/App.tsx:115:15:4365:264:e:path"/><circle cx="320" cy="165" r="3" fill="#d91f2d" data-fg-d3bl54="0.8:1.43962:/src/app/App.tsx:122:15:4644:57:e:circle"/></g><g opacity="0.4" data-fg-d3bl52="0.8:1.43962:/src/app/App.tsx:114:13:4312:406:e:g:ete"><path d="M 350 165 Q 355 195 350 225 T 350 260" stroke="#d91f2d" stroke-width="2.5" fill="none" stroke-linecap="round" data-fg-d3bl53="0.8:1.43962:/src/app/App.tsx:115:15:4365:264:e:path"/><circle cx="350" cy="165" r="3" fill="#d91f2d" data-fg-d3bl54="0.8:1.43962:/src/app/App.tsx:122:15:4644:57:e:circle"/></g><g opacity="0.4" data-fg-d3bl52="0.8:1.43962:/src/app/App.tsx:114:13:4312:406:e:g:ete"><path d="M 380 165 Q 385 195 380 225 T 380 260" stroke="#d91f2d" stroke-width="2.5" fill="none" stroke-linecap="round" data-fg-d3bl53="0.8:1.43962:/src/app/App.tsx:115:15:4365:264:e:path"/><circle cx="380" cy="165" r="3" fill="#d91f2d" data-fg-d3bl54="0.8:1.43962:/src/app/App.tsx:122:15:4644:57:e:circle"/></g><g opacity="0.4" data-fg-d3bl52="0.8:1.43962:/src/app/App.tsx:114:13:4312:406:e:g:ete"><path d="M 410 165 Q 415 195 410 225 T 410 260" stroke="#d91f2d" stroke-width="2.5" fill="none" stroke-linecap="round" data-fg-d3bl53="0.8:1.43962:/src/app/App.tsx:115:15:4365:264:e:path"/><circle cx="410" cy="165" r="3" fill="#d91f2d" data-fg-d3bl54="0.8:1.43962:/src/app/App.tsx:122:15:4644:57:e:circle"/></g></g><g transform="translate(110, 280)" filter="url(#shadow)" data-fg-d3bl56="0.8:1.43962:/src/app/App.tsx:128:9:4804:942:e:g:xtetetetxtetetxtetxtetete"><path d="M -35 0 L 35 0 L 28 -50 L -28 -50 Z" fill="url(#redGradient)" data-fg-d3bl58="0.8:1.43962:/src/app/App.tsx:130:11:4923:72:e:path"/><ellipse cx="0" cy="-50" rx="30" ry="5" fill="#1a2540" opacity="0.3" data-fg-d3bl59="0.8:1.43962:/src/app/App.tsx:131:11:5006:70:e:ellipse"/><ellipse cx="0" cy="0" rx="37" ry="5" fill="#1a2540" opacity="0.2" data-fg-d3bl60="0.8:1.43962:/src/app/App.tsx:132:11:5087:68:e:ellipse"/><ellipse cx="0" cy="10" rx="50" ry="15" fill="#d91f2d" opacity="0.15" data-fg-d3bl62="0.8:1.43962:/src/app/App.tsx:135:11:5212:71:e:ellipse"/><ellipse cx="0" cy="8" rx="40" ry="12" fill="#d91f2d" opacity="0.2" data-fg-d3bl63="0.8:1.43962:/src/app/App.tsx:136:11:5294:69:e:ellipse"/><rect x="-2" y="0" width="4" height="150" fill="url(#navyGradient)" rx="2" data-fg-d3bl65="0.8:1.43962:/src/app/App.tsx:139:11:5414:76:e:rect"/><ellipse cx="0" cy="150" rx="25" ry="8" fill="url(#navyGradient)" data-fg-d3bl67="0.8:1.43962:/src/app/App.tsx:142:11:5542:67:e:ellipse"/><ellipse cx="0" cy="147" rx="25" ry="8" fill="#1a2540" data-fg-d3bl68="0.8:1.43962:/src/app/App.tsx:143:11:5620:56:e:ellipse"/><circle cx="0" cy="147" r="8" fill="#121a2e" data-fg-d3bl69="0.8:1.43962:/src/app/App.tsx:144:11:5687:46:e:circle"/></g><g transform="translate(420, 310)" filter="url(#shadow)" data-fg-d3bl71="0.8:1.43962:/src/app/App.tsx:148:9:5819:1515:e:g:xtetetxtetetxtetetxtetetxtetetxtetetete"><rect x="-100" y="-50" width="200" height="60" rx="12" fill="url(#navyGradient)" data-fg-d3bl73="0.8:1.43962:/src/app/App.tsx:150:11:5938:82:e:rect"/><rect x="-95" y="-45" width="190" height="50" rx="10" fill="#1a2540" data-fg-d3bl74="0.8:1.43962:/src/app/App.tsx:151:11:6031:70:e:rect"/><rect x="-110" y="10" width="220" height="70" rx="12" fill="url(#navyGradient)" data-fg-d3bl76="0.8:1.43962:/src/app/App.tsx:154:11:6161:81:e:rect"/><rect x="-105" y="15" width="210" height="60" rx="10" fill="#1a2540" data-fg-d3bl77="0.8:1.43962:/src/app/App.tsx:155:11:6253:70:e:rect"/><rect x="-95" y="22" width="85" height="45" rx="8" fill="#121a2e" data-fg-d3bl79="0.8:1.43962:/src/app/App.tsx:158:11:6390:67:e:rect"/><rect x="10" y="22" width="85" height="45" rx="8" fill="#121a2e" data-fg-d3bl80="0.8:1.43962:/src/app/App.tsx:159:11:6468:66:e:rect"/><ellipse cx="-52" cy="30" rx="20" ry="8" fill="white" opacity="0.05" data-fg-d3bl82="0.8:1.43962:/src/app/App.tsx:162:11:6600:70:e:ellipse"/><ellipse cx="52" cy="30" rx="20" ry="8" fill="white" opacity="0.05" data-fg-d3bl83="0.8:1.43962:/src/app/App.tsx:163:11:6681:69:e:ellipse"/><rect x="-120" y="-30" width="22" height="85" rx="8" fill="url(#navyGradient)" data-fg-d3bl85="0.8:1.43962:/src/app/App.tsx:166:11:6806:80:e:rect"/><rect x="98" y="-30" width="22" height="85" rx="8" fill="url(#navyGradient)" data-fg-d3bl86="0.8:1.43962:/src/app/App.tsx:167:11:6897:78:e:rect"/><rect x="-95" y="80" width="6" height="20" rx="3" fill="#1a2540" data-fg-d3bl88="0.8:1.43962:/src/app/App.tsx:170:11:7026:66:e:rect"/><rect x="-30" y="80" width="6" height="20" rx="3" fill="#1a2540" data-fg-d3bl89="0.8:1.43962:/src/app/App.tsx:171:11:7103:66:e:rect"/><rect x="24" y="80" width="6" height="20" rx="3" fill="#1a2540" data-fg-d3bl90="0.8:1.43962:/src/app/App.tsx:172:11:7180:65:e:rect"/><rect x="89" y="80" width="6" height="20" rx="3" fill="#1a2540" data-fg-d3bl91="0.8:1.43962:/src/app/App.tsx:173:11:7256:65:e:rect"/></g><g transform="translate(580, 360)" filter="url(#shadow)" data-fg-d3bl93="0.8:1.43962:/src/app/App.tsx:177:9:7405:737:e:g:xtetetxtetetetxte"><path d="M -20 0 L 20 0 L 16 30 L -16 30 Z" fill="url(#navyGradient)" data-fg-d3bl95="0.8:1.43962:/src/app/App.tsx:179:11:7508:71:e:path"/><ellipse cx="0" cy="0" rx="20" ry="6" fill="#1a2540" data-fg-d3bl96="0.8:1.43962:/src/app/App.tsx:180:11:7590:54:e:ellipse"/><ellipse cx="-12" cy="-15" rx="12" ry="18" fill="#d91f2d" opacity="0.6" transform="rotate(-15 -12 -15)" data-fg-d3bl98="0.8:1.43962:/src/app/App.tsx:183:11:7706:105:e:ellipse"/><ellipse cx="0" cy="-20" rx="14" ry="22" fill="#d91f2d" opacity="0.7" data-fg-d3bl99="0.8:1.43962:/src/app/App.tsx:184:11:7822:71:e:ellipse"/><ellipse cx="12" cy="-15" rx="12" ry="18" fill="#d91f2d" opacity="0.6" transform="rotate(15 12 -15)" data-fg-d3bl100="0.8:1.43962:/src/app/App.tsx:185:11:7904:102:e:ellipse"/><ellipse cx="0" cy="-25" rx="4" ry="6" fill="white" opacity="0.3" data-fg-d3bl102="0.8:1.43962:/src/app/App.tsx:188:11:8062:67:e:ellipse"/></g><g opacity="0.8" data-fg-d3bl104="0.8:1.43962:/src/app/App.tsx:192:9:8213:2861:e:g:xtetetxtetetetetetetxtetetetetetetetetetetetetetxtetete"><g transform="translate(180, 80)" data-fg-d3bl106="0.8:1.43962:/src/app/App.tsx:194:11:8281:168:e:g:e"><path d="M 0 -12 L 3 -3 L 12 0 L 3 3 L 0 12 L -3 3 L -12 0 L -3 -3 Z" fill="#d91f2d" filter="url(#glow)" data-fg-d3bl107="0.8:1.43962:/src/app/App.tsx:195:13:8328:106:e:path"/></g><g transform="translate(520, 55)" data-fg-d3bl108="0.8:1.43962:/src/app/App.tsx:198:11:8471:168:e:g:e"><path d="M 0 -12 L 3 -3 L 12 0 L 3 3 L 0 12 L -3 3 L -12 0 L -3 -3 Z" fill="#d91f2d" filter="url(#glow)" data-fg-d3bl109="0.8:1.43962:/src/app/App.tsx:199:13:8518:106:e:path"/></g><g transform="translate(510, 95)" data-fg-d3bl111="0.8:1.43962:/src/app/App.tsx:203:11:8692:144:e:g:e"><path d="M 0 -8 L 2 -2 L 8 0 L 2 2 L 0 8 L -2 2 L -8 0 L -2 -2 Z" fill="#d91f2d" data-fg-d3bl112="0.8:1.43962:/src/app/App.tsx:204:13:8739:82:e:path"/></g><g transform="translate(170, 120)" data-fg-d3bl113="0.8:1.43962:/src/app/App.tsx:207:11:8858:145:e:g:e"><path d="M 0 -8 L 2 -2 L 8 0 L 2 2 L 0 8 L -2 2 L -8 0 L -2 -2 Z" fill="#1a2540" data-fg-d3bl114="0.8:1.43962:/src/app/App.tsx:208:13:8906:82:e:path"/></g><g transform="translate(200, 170)" data-fg-d3bl115="0.8:1.43962:/src/app/App.tsx:211:11:9025:161:e:g:e"><path d="M 0 -6 L 1.5 -1.5 L 6 0 L 1.5 1.5 L 0 6 L -1.5 1.5 L -6 0 L -1.5 -1.5 Z" fill="#d91f2d" data-fg-d3bl116="0.8:1.43962:/src/app/App.tsx:212:13:9073:98:e:path"/></g><g transform="translate(85, 250)" data-fg-d3bl117="0.8:1.43962:/src/app/App.tsx:215:11:9208:144:e:g:e"><path d="M 0 -8 L 2 -2 L 8 0 L 2 2 L 0 8 L -2 2 L -8 0 L -2 -2 Z" fill="#d91f2d" data-fg-d3bl118="0.8:1.43962:/src/app/App.tsx:216:13:9255:82:e:path"/></g><g transform="translate(540, 280)" data-fg-d3bl119="0.8:1.43962:/src/app/App.tsx:219:11:9374:161:e:g:e"><path d="M 0 -6 L 1.5 -1.5 L 6 0 L 1.5 1.5 L 0 6 L -1.5 1.5 L -6 0 L -1.5 -1.5 Z" fill="#1a2540" data-fg-d3bl120="0.8:1.43962:/src/app/App.tsx:220:13:9422:98:e:path"/></g><g transform="translate(615, 340)" data-fg-d3bl121="0.8:1.43962:/src/app/App.tsx:223:11:9557:145:e:g:e"><path d="M 0 -8 L 2 -2 L 8 0 L 2 2 L 0 8 L -2 2 L -8 0 L -2 -2 Z" fill="#d91f2d" data-fg-d3bl122="0.8:1.43962:/src/app/App.tsx:224:13:9605:82:e:path"/></g><circle cx="530" cy="75" r="3" fill="#d91f2d" opacity="0.6" data-fg-d3bl124="0.8:1.43962:/src/app/App.tsx:228:11:9778:61:e:circle"/><circle cx="500" cy="110" r="2" fill="#1a2540" opacity="0.6" data-fg-d3bl125="0.8:1.43962:/src/app/App.tsx:229:11:9850:62:e:circle"/><circle cx="190" cy="145" r="2.5" fill="#d91f2d" opacity="0.5" data-fg-d3bl126="0.8:1.43962:/src/app/App.tsx:230:11:9923:64:e:circle"/><circle cx="155" cy="100" r="3" fill="#1a2540" opacity="0.5" data-fg-d3bl127="0.8:1.43962:/src/app/App.tsx:231:11:9998:62:e:circle"/><circle cx="545" cy="125" r="2" fill="#d91f2d" opacity="0.7" data-fg-d3bl128="0.8:1.43962:/src/app/App.tsx:232:11:10071:62:e:circle"/><circle cx="75" y="270" r="2.5" fill="#1a2540" opacity="0.6" data-fg-d3bl129="0.8:1.43962:/src/app/App.tsx:233:11:10144:62:e:circle"/><circle cx="145" cy="280" r="2" fill="#d91f2d" opacity="0.5" data-fg-d3bl130="0.8:1.43962:/src/app/App.tsx:234:11:10217:62:e:circle"/><circle cx="555" cy="300" r="3" fill="#1a2540" opacity="0.6" data-fg-d3bl131="0.8:1.43962:/src/app/App.tsx:235:11:10290:62:e:circle"/><circle cx="605" cy="360" r="2" fill="#d91f2d" opacity="0.6" data-fg-d3bl132="0.8:1.43962:/src/app/App.tsx:236:11:10363:62:e:circle"/><circle cx="630" cy="350" r="2.5" fill="#1a2540" opacity="0.5" data-fg-d3bl133="0.8:1.43962:/src/app/App.tsx:237:11:10436:64:e:circle"/><circle cx="90" cy="310" r="2" fill="#d91f2d" opacity="0.6" data-fg-d3bl134="0.8:1.43962:/src/app/App.tsx:238:11:10511:61:e:circle"/><circle cx="175" cy="60" r="2.5" fill="#1a2540" opacity="0.5" data-fg-d3bl135="0.8:1.43962:/src/app/App.tsx:239:11:10583:63:e:circle"/><circle cx="525" cy="45" r="2" fill="#d91f2d" opacity="0.7" data-fg-d3bl136="0.8:1.43962:/src/app/App.tsx:240:11:10657:61:e:circle"/><circle cx="195" cy="90" r="2" fill="#d91f2d" opacity="0.8" filter="url(#glow)" data-fg-d3bl138="0.8:1.43962:/src/app/App.tsx:243:11:10794:81:e:circle"/><circle cx="505" cy="85" r="2" fill="#d91f2d" opacity="0.8" filter="url(#glow)" data-fg-d3bl139="0.8:1.43962:/src/app/App.tsx:244:11:10886:81:e:circle"/><circle cx="350" cy="55" r="2.5" fill="#d91f2d" opacity="0.7" filter="url(#glow)" data-fg-d3bl140="0.8:1.43962:/src/app/App.tsx:245:11:10978:83:e:circle"/></g><g transform="translate(485, 115)" data-fg-d3bl142="0.8:1.43962:/src/app/App.tsx:249:9:11145:269:e:g:ete"><circle cx="0" cy="0" r="18" fill="#d91f2d" filter="url(#glow)" opacity="0.9" data-fg-d3bl143="0.8:1.43962:/src/app/App.tsx:250:11:11191:79:e:circle"/><path d="M -6 0 L -2 6 L 8 -6" stroke="white" stroke-width="3" stroke-linecap="round" stroke-linejoin="round" fill="none" data-fg-d3bl144="0.8:1.43962:/src/app/App.tsx:251:11:11281:120:e:path"/></g></svg>